HIERARCHY
ROOT Hips
{
 OFFSET 0.000000 0.000000 0.000000
 CHANNELS 6 Xposition Yposition Zposition Yrotation Xrotation Zrotation
 JOINT Chest
 {
  OFFSET 0.000000 9.585900 0.002600
  CHANNELS 3 Yrotation Xrotation Zrotation
  JOINT Chest2
  {
   OFFSET 0.000000 9.601200 -0.005300
   CHANNELS 3 Yrotation Xrotation Zrotation
   JOINT Chest3
   {
    OFFSET 0.000000 9.561800 0.000000
    CHANNELS 3 Yrotation Xrotation Zrotation
    JOINT Chest4
    {
     OFFSET 0.000000 9.552100 0.000000
     CHANNELS 3 Yrotation Xrotation Zrotation
     JOINT Neck
     {
      OFFSET 0.000000 14.453000 0.000000
      CHANNELS 3 Yrotation Xrotation Zrotation
      JOINT Head
      {
       OFFSET 0.000000 8.936500 -0.011300
       CHANNELS 3 Yrotation Xrotation Zrotation
       End Site
       {
        OFFSET 0.000000 17.073600 -0.006000
       }
      }
     }
     JOINT RightCollar
     {
      OFFSET -2.921100 9.558500 0.000000
      CHANNELS 3 Yrotation Xrotation Zrotation
      JOINT RightShoulder
      {
       OFFSET -13.519700 0.000000 0.000000
       CHANNELS 3 Yrotation Xrotation Zrotation
       JOINT RightElbow
       {
        OFFSET 0.000000 -29.696600 0.000000
        CHANNELS 3 Yrotation Xrotation Zrotation
        JOINT RightWrist
        {
         OFFSET 0.000000 -24.004700 0.000000
         CHANNELS 3 Yrotation Xrotation Zrotation
         End Site
         {
          OFFSET 0.000000 -17.728500 0.000000
         }
        }
       }
      }
     }
     JOINT LeftCollar
     {
      OFFSET 2.921100 9.558500 0.000000
      CHANNELS 3 Yrotation Xrotation Zrotation
      JOINT LeftShoulder
      {
       OFFSET 13.519700 0.000000 0.000000
       CHANNELS 3 Yrotation Xrotation Zrotation
       JOINT LeftElbow
       {
        OFFSET 0.000000 -29.696600 0.000000
        CHANNELS 3 Yrotation Xrotation Zrotation
        JOINT LeftWrist
        {
         OFFSET 0.000000 -24.004700 0.000000
         CHANNELS 3 Yrotation Xrotation Zrotation
         End Site
         {
          OFFSET 0.000000 -17.728500 0.000000
         }
        }
       }
      }
     }
    }
   }
  }
 }
 JOINT RightHip
 {
  OFFSET -7.771700 -0.012900 -0.001300
  CHANNELS 3 Yrotation Xrotation Zrotation
  JOINT RightKnee
  {
   OFFSET 0.000000 -40.869800 0.001200
   CHANNELS 3 Yrotation Xrotation Zrotation
   JOINT RightAnkle
   {
    OFFSET 0.000000 -39.717900 0.002100
    CHANNELS 3 Yrotation Xrotation Zrotation
    JOINT RightToe
    {
     OFFSET 0.000000 -4.965400 11.033500
     CHANNELS 3 Yrotation Xrotation Zrotation
     End Site
     {
      OFFSET 0.000000 -1.423100 5.872300
     }
    }
   }
  }
 }
 JOINT LeftHip
 {
  OFFSET 7.771700 -0.012900 -0.001300
  CHANNELS 3 Yrotation Xrotation Zrotation
  JOINT LeftKnee
  {
   OFFSET 0.000000 -40.869800 0.001200
   CHANNELS 3 Yrotation Xrotation Zrotation
   JOINT LeftAnkle
   {
    OFFSET 0.000000 -39.717900 0.002100
    CHANNELS 3 Yrotation Xrotation Zrotation
    JOINT LeftToe
    {
     OFFSET 0.000000 -4.965400 11.033500
     CHANNELS 3 Yrotation Xrotation Zrotation
     End Site
     {
      OFFSET 0.000000 -1.423100 5.872300
     }
    }
   }
  }
 }
}
MOTION
Frames: 6
Frame Time: 0.008333
-223.862151 57.795959 24.980970 174.409842 -48.670665 -2.897153 4.702226 22.335001 3.511440 2.423590 12.812695 1.807569 3.126171 16.017949 2.368216 2.426149 12.801670 1.808676 1.833408 17.647447 4.410009 1.932958 -2.965712 7.484915 2.691403 2.242519 1.736500 1.822316 -19.321012 -11.084882 -28.204639 -11.279616 87.712254 -10.273681 -8.096445 -31.471228 -10.427779 -0.460360 -1.231118 -0.073721 -18.530385 13.207207 19.496316 -14.788235 -84.459581 21.823989 -9.761107 28.343280 5.590062 -23.420765 -1.595128 -41.343016 73.022824 -44.524261 4.501922 -13.319820 11.593615 0.048444 -0.111471 0.045606 -7.654949 -22.133204 8.279786 59.242044 77.739056 58.902260 6.195745 -15.087104 -19.691445 0.021722 0.121104 0.012012
-223.863651 57.795067 24.985129 174.411457 -48.698882 -2.893669 4.695611 22.324297 3.505259 2.424687 12.842357 1.808971 3.102394 15.964664 2.355167 2.430303 12.829748 1.809821 1.821155 17.653424 4.348282 1.938045 -2.940345 7.408054 2.706352 2.233239 1.728687 1.822795 -19.372069 -11.063799 -28.184780 -11.215929 87.655885 -10.286560 -8.089448 -31.464612 -10.428916 -0.496681 -1.238752 -0.049746 -18.488648 13.205699 19.497616 -14.789250 -84.447062 21.832835 -9.753562 28.343276 5.592454 -23.392800 -1.595518 -41.345021 73.017836 -44.526355 4.506633 -13.320499 11.592898 0.051132 -0.112217 0.040502 -7.661360 -22.104510 8.269147 59.242928 77.729630 58.895736 6.197442 -15.085346 -19.692118 0.017815 0.126440 0.010313
-223.864615 57.796119 24.987629 174.415306 -48.741158 -2.894466 4.690959 22.327923 3.503723 2.419674 12.844044 1.807577 3.097867 15.967100 2.353486 2.425181 12.831313 1.808595 1.811786 17.665242 4.297472 1.935692 -2.920234 7.319273 2.723345 2.232690 1.720771 1.816804 -19.385920 -11.050031 -28.179320 -11.191553 87.626521 -10.287839 -8.081736 -31.443432 -10.423312 -0.497885 -1.247342 -0.040028 -18.463879 13.207847 19.498895 -14.787714 -84.442543 21.824259 -9.752946 28.338548 5.592289 -23.350489 -1.588523 -41.360103 73.010548 -44.543417 4.516509 -13.319450 11.587904 0.045167 -0.116277 0.040074 -7.666076 -22.059976 8.258437 59.235895 77.718925 58.884194 6.201217 -15.080188 -19.695866 0.007891 0.129509 0.010371
-223.866123 57.797611 24.989606 174.420294 -48.785615 -2.892947 4.685080 22.335327 3.497760 2.410131 12.808922 1.802169 3.107681 16.030887 2.363335 2.413167 12.807076 1.803467 1.801122 17.678607 4.246456 1.931724 -2.899167 7.233280 2.738348 2.233829 1.713238 1.811256 -19.401653 -11.035567 -28.175280 -11.166942 87.595222 -10.282151 -8.069353 -31.421863 -10.414410 -0.482047 -1.253052 -0.035427 -18.482390 13.201525 19.497951 -14.773602 -84.428343 21.830245 -9.742100 28.343326 5.592749 -23.303758 -1.582688 -41.370263 73.002381 -44.557431 4.514226 -13.319358 11.578123 0.043542 -0.117366 0.047558 -7.671465 -22.012527 8.244677 59.226521 77.710228 58.869259 6.202996 -15.076704 -19.699932 0.024072 0.129915 0.012238
-223.867705 57.798881 24.991631 174.424846 -48.827391 -2.890983 4.680772 22.350660 3.491634 2.407904 12.802260 1.798833 3.101663 16.030024 2.364596 2.400216 12.782255 1.789260 1.802300 17.720932 4.207043 1.923886 -2.879433 7.151961 2.760042 2.277117 1.725243 1.811578 -19.421543 -11.028414 -28.174275 -11.151814 87.569032 -10.282405 -8.060544 -31.403503 -10.397513 -0.438184 -1.252718 -0.026224 -18.535269 13.184813 19.473295 -14.733666 -84.395102 21.839266 -9.737828 28.349121 5.592176 -23.260222 -1.580233 -41.362284 72.998207 -44.554859 4.515619 -13.317594 11.577268 0.038961 -0.120028 0.045273 -7.672918 -21.969526 8.232791 59.215134 77.705585 58.855709 6.189310 -15.075142 -19.699313 0.030283 0.128372 0.012621
-223.867602 57.803320 24.990985 174.431887 -48.892830 -2.899572 4.682297 22.407164 3.499538 2.406962 12.794673 1.796190 3.092516 15.996529 2.349402 2.409074 12.818576 1.802179 1.782158 17.719820 4.156070 1.911383 -2.861464 7.073012 2.763552 2.274144 1.725980 1.811073 -19.417870 -11.021959 -28.177848 -11.155790 87.553850 -10.281430 -8.054732 -31.385922 -10.406457 -0.459066 -1.258218 -0.012327 -18.525827 13.186415 19.467234 -14.729640 -84.386328 21.835405 -9.742361 28.340706 5.587061 -23.192626 -1.558447 -41.365936 72.990211 -44.565503 4.508936 -13.308939 11.575526 0.041920 -0.127522 0.049723 -7.677249 -21.900635 8.226600 59.203194 77.700330 58.839606 6.192396 -15.065297 -19.698943 0.028517 0.122988 0.010922
